<svg xmlns="http://www.w3.org/2000/svg" viewBox="80 152 212 48" preserveAspectRatio="xMidYMid meet"><g fill="#7FFF00" fill-opacity="1"><g transform="translate(83.93266, 195.08319)"><g><path d="M 18.578125 -7.28125 L 18.578125 0 L 0.53125 0 C 0.175781 0 0 -0.144531 0 -0.4375 L 0 -38.671875 C 0 -38.960938 0.175781 -39.109375 0.53125 -39.109375 L 18.578125 -39.109375 L 18.578125 -32.015625 L 7.484375 -32.015625 L 7.484375 -23.171875 L 22.828125 -23.171875 C 23.191406 -23.171875 23.375 -23.023438 23.375 -22.734375 L 23.375 -16.53125 C 23.375 -16.226562 23.191406 -16.078125 22.828125 -16.078125 L 7.484375 -16.078125 L 7.484375 -7.28125 Z M 18.578125 -7.28125 "/></g></g></g><g fill="#7FFF00" fill-opacity="1"><g transform="translate(110.816506, 195.08319)"><g><path d="M 22.34375 -7.1875 L 29.828125 -7.1875 L 29.828125 -0.4375 C 29.828125 -0.144531 29.644531 0 29.28125 0 L 22.921875 0 C 20.972656 0 18.9375 -0.144531 16.8125 -0.4375 C 14.695312 -0.726562 12.644531 -1.273438 10.65625 -2.078125 C 8.664062 -2.878906 6.863281 -4.003906 5.25 -5.453125 C 3.632812 -6.898438 2.351562 -8.769531 1.40625 -11.0625 C 0.46875 -13.363281 0 -16.195312 0 -19.5625 C 0 -23.007812 0.476562 -25.90625 1.4375 -28.25 C 2.40625 -30.601562 3.691406 -32.492188 5.296875 -33.921875 C 6.910156 -35.359375 8.71875 -36.453125 10.71875 -37.203125 C 12.726562 -37.953125 14.785156 -38.457031 16.890625 -38.71875 C 18.992188 -38.976562 21.003906 -39.109375 22.921875 -39.109375 L 29.28125 -39.109375 C 29.644531 -39.109375 29.828125 -38.960938 29.828125 -38.671875 L 29.828125 -23.328125 L 22.34375 -23.328125 L 22.34375 -31.96875 C 19.507812 -32.132812 16.972656 -31.816406 14.734375 -31.015625 C 12.503906 -30.222656 10.742188 -28.890625 9.453125 -27.015625 C 8.171875 -25.140625 7.53125 -22.65625 7.53125 -19.5625 C 7.53125 -17.144531 7.878906 -15.15625 8.578125 -13.59375 C 9.273438 -12.03125 10.203125 -10.804688 11.359375 -9.921875 C 12.523438 -9.046875 13.773438 -8.398438 15.109375 -7.984375 C 16.441406 -7.578125 17.742188 -7.332031 19.015625 -7.25 C 20.285156 -7.175781 21.394531 -7.15625 22.34375 -7.1875 Z M 22.34375 -7.1875 "/></g></g></g><g fill="#7FFF00" fill-opacity="1"><g transform="translate(144.494527, 195.08319)"><g><path d="M 35 -9.4375 L 35 -21.859375 L 25.03125 -1.859375 C 24.96875 -1.660156 24.820312 -1.5625 24.59375 -1.5625 L 18.578125 -1.5625 C 18.316406 -1.5625 18.15625 -1.660156 18.09375 -1.859375 L 7.484375 -22.390625 L 7.484375 -0.4375 C 7.484375 -0.144531 7.300781 0 6.9375 0 L 0.484375 0 C 0.160156 0 0 -0.144531 0 -0.4375 L 0 -38.671875 C 0 -38.960938 0.160156 -39.109375 0.484375 -39.109375 L 7.046875 -39.109375 C 7.304688 -39.109375 7.46875 -39.007812 7.53125 -38.8125 L 21.5625 -10.171875 L 34.90625 -38.8125 C 35.039062 -39.007812 35.222656 -39.109375 35.453125 -39.109375 L 41.90625 -39.109375 C 42.257812 -39.109375 42.4375 -38.960938 42.4375 -38.671875 L 42.4375 -9.4375 Z M 35 -9.4375 "/></g></g></g><g fill="#7FFF00" fill-opacity="1"><g transform="translate(191.418745, 195.08319)"><g><path d="M 7.046875 -3.421875 C 7.046875 -2.472656 6.703125 -1.664062 6.015625 -1 C 5.328125 -0.332031 4.476562 0 3.46875 0 C 2.519531 0 1.703125 -0.332031 1.015625 -1 C 0.335938 -1.664062 0 -2.472656 0 -3.421875 C 0 -4.367188 0.335938 -5.179688 1.015625 -5.859375 C 1.703125 -6.546875 2.519531 -6.890625 3.46875 -6.890625 C 4.476562 -6.890625 5.328125 -6.546875 6.015625 -5.859375 C 6.703125 -5.179688 7.046875 -4.367188 7.046875 -3.421875 Z M 7.046875 -3.421875 "/></g></g></g><g fill="#7FFF00" fill-opacity="1"><g transform="translate(201.146085, 195.08319)"><g><path d="M 6.9375 -39.109375 C 8.832031 -39.109375 10.835938 -38.976562 12.953125 -38.71875 C 15.078125 -38.457031 17.128906 -37.953125 19.109375 -37.203125 C 21.097656 -36.453125 22.898438 -35.359375 24.515625 -33.921875 C 26.128906 -32.492188 27.414062 -30.613281 28.375 -28.28125 C 29.34375 -25.945312 29.828125 -23.039062 29.828125 -19.5625 C 29.828125 -16.195312 29.351562 -13.363281 28.40625 -11.0625 C 27.457031 -8.769531 26.1875 -6.898438 24.59375 -5.453125 C 23 -4.003906 21.195312 -2.878906 19.1875 -2.078125 C 17.1875 -1.273438 15.132812 -0.726562 13.03125 -0.4375 C 10.925781 -0.144531 8.894531 0 6.9375 0 L 0.53125 0 C 0.175781 0 0 -0.144531 0 -0.4375 L 0 -15.796875 L 7.484375 -15.796875 L 7.484375 -7.1875 C 8.421875 -7.15625 9.523438 -7.175781 10.796875 -7.25 C 12.078125 -7.332031 13.382812 -7.578125 14.71875 -7.984375 C 16.050781 -8.398438 17.296875 -9.046875 18.453125 -9.921875 C 19.609375 -10.804688 20.535156 -12.03125 21.234375 -13.59375 C 21.941406 -15.15625 22.296875 -17.144531 22.296875 -19.5625 C 22.296875 -22.65625 21.648438 -25.140625 20.359375 -27.015625 C 19.078125 -28.890625 17.316406 -30.222656 15.078125 -31.015625 C 12.847656 -31.816406 10.316406 -32.132812 7.484375 -31.96875 L 7.484375 -23.328125 L 0 -23.328125 L 0 -38.671875 C 0 -38.960938 0.175781 -39.109375 0.53125 -39.109375 Z M 6.9375 -39.109375 "/></g></g></g><g fill="#7FFF00" fill-opacity="1"><g transform="translate(234.824099, 195.08319)"><g><path d="M 18.578125 -7.28125 L 18.578125 0 L 0.53125 0 C 0.175781 0 0 -0.144531 0 -0.4375 L 0 -38.671875 C 0 -38.960938 0.175781 -39.109375 0.53125 -39.109375 L 18.578125 -39.109375 L 18.578125 -32.015625 L 7.484375 -32.015625 L 7.484375 -23.171875 L 22.828125 -23.171875 C 23.191406 -23.171875 23.375 -23.023438 23.375 -22.734375 L 23.375 -16.53125 C 23.375 -16.226562 23.191406 -16.078125 22.828125 -16.078125 L 7.484375 -16.078125 L 7.484375 -7.28125 Z M 18.578125 -7.28125 "/></g></g></g><g fill="#7FFF00" fill-opacity="1"><g transform="translate(261.707939, 195.08319)"><g><path d="M 20.390625 -31.828125 L 27.921875 -31.828125 L 15.6875 -0.25 C 15.625 -0.0820312 15.476562 0 15.25 0 C 15.019531 0 14.859375 -0.0820312 14.765625 -0.25 L 0.046875 -38.53125 C -0.015625 -38.6875 -0.00390625 -38.820312 0.078125 -38.9375 C 0.160156 -39.050781 0.296875 -39.109375 0.484375 -39.109375 L 7.140625 -39.109375 C 7.429688 -39.109375 7.59375 -39.007812 7.625 -38.8125 L 15.25 -17.5 Z M 20.390625 -31.828125 "/></g></g></g></svg>